solid OpenSCAD_Model
  facet normal -1 0 0
    outer loop
      vertex -13.5 -40.0114 1.5
      vertex -13.5 -14.9999 2
      vertex -13.5 -14.9999 1.5
    endloop
  endfacet
  facet normal -1 0 0
    outer loop
      vertex -13.5 -40.0114 9.5
      vertex -13.5 -14.9999 2
      vertex -13.5 -40.0114 1.5
    endloop
  endfacet
  facet normal -1 0 0
    outer loop
      vertex -13.5 -14.9999 2
      vertex -13.5 -40.0114 9.5
      vertex -13.5 -14.9999 9.5
    endloop
  endfacet
  facet normal -0 0 1
    outer loop
      vertex -1.5 -14.9994 9.5
      vertex 1.5 -40.0114 9.5
      vertex 1.5 -14.9992 9.5
    endloop
  endfacet
  facet normal 0 0 1
    outer loop
      vertex 1.5 -40.0114 9.5
      vertex -1.5 -14.9994 9.5
      vertex -1.5 -40.0114 9.5
    endloop
  endfacet
  facet normal -0 0 1
    outer loop
      vertex -13.5 -14.9999 9.5
      vertex -10.5 -40.0114 9.5
      vertex -10.5 -14.9997 9.5
    endloop
  endfacet
  facet normal 0 0 1
    outer loop
      vertex -10.5 -40.0114 9.5
      vertex -13.5 -14.9999 9.5
      vertex -13.5 -40.0114 9.5
    endloop
  endfacet
  facet normal 1 0 0
    outer loop
      vertex 1.5 -14.9992 9.5
      vertex 1.5 -40.0114 9.5
      vertex 1.5 -14.9992 2
    endloop
  endfacet
  facet normal 1 0 0
    outer loop
      vertex 1.5 -40.0114 1.5
      vertex 1.5 -14.9992 2
      vertex 1.5 -40.0114 9.5
    endloop
  endfacet
  facet normal 1 0 0
    outer loop
      vertex 1.5 -14.9992 2
      vertex 1.5 -40.0114 1.5
      vertex 1.5 -14.9992 1.5
    endloop
  endfacet
  facet normal 0 0 -1
    outer loop
      vertex -13.5 -40.0114 1.5
      vertex 1.5 -40.0114 1.5
      vertex 0.626209 -49.999 1.5
    endloop
  endfacet
  facet normal 0 0 -1
    outer loop
      vertex -13.5 -40.0114 1.5
      vertex 0.626209 -49.999 1.5
      vertex -12.6262 -49.999 1.5
    endloop
  endfacet
  facet normal 0 0 -1
    outer loop
      vertex 1.5 -40.0114 1.5
      vertex -13.5 -40.0114 1.5
      vertex 1.5 -14.9992 1.5
    endloop
  endfacet
  facet normal 0 0 -1
    outer loop
      vertex 1.5 -14.9992 1.5
      vertex -13.5 -40.0114 1.5
      vertex -13.5 -14.9999 1.5
    endloop
  endfacet
  facet normal 0 -1 0
    outer loop
      vertex -12.6262 -49.999 8.62621
      vertex -10.5 -49.999 3.5
      vertex -10.5 -49.999 8.62621
    endloop
  endfacet
  facet normal 0 -1 -0
    outer loop
      vertex -10.5 -49.999 3.5
      vertex -12.6262 -49.999 1.5
      vertex -1.5 -49.999 3.5
    endloop
  endfacet
  facet normal 0 -1 0
    outer loop
      vertex -12.6262 -49.999 1.5
      vertex -10.5 -49.999 3.5
      vertex -12.6262 -49.999 8.62621
    endloop
  endfacet
  facet normal 0 -1 0
    outer loop
      vertex -1.5 -49.999 3.5
      vertex 0.626209 -49.999 8.62621
      vertex -1.5 -49.999 8.62621
    endloop
  endfacet
  facet normal 0 -1 0
    outer loop
      vertex -1.5 -49.999 3.5
      vertex 0.626209 -49.999 1.5
      vertex 0.626209 -49.999 8.62621
    endloop
  endfacet
  facet normal 0 -1 0
    outer loop
      vertex 0.626209 -49.999 1.5
      vertex -1.5 -49.999 3.5
      vertex -12.6262 -49.999 1.5
    endloop
  endfacet
  facet normal 1 -0 0
    outer loop
      vertex -10.5 -40.0114 9.5
      vertex -10.5 -14.9997 3.5
      vertex -10.5 -14.9997 9.5
    endloop
  endfacet
  facet normal 1 0 0
    outer loop
      vertex -10.5 -49.999 3.5
      vertex -10.5 -40.0114 9.5
      vertex -10.5 -49.999 8.62621
    endloop
  endfacet
  facet normal 1 0 0
    outer loop
      vertex -10.5 -40.0114 9.5
      vertex -10.5 -49.999 3.5
      vertex -10.5 -14.9997 3.5
    endloop
  endfacet
  facet normal -1 0 0
    outer loop
      vertex -1.5 -14.9994 3.5
      vertex -1.5 -40.0114 9.5
      vertex -1.5 -14.9994 9.5
    endloop
  endfacet
  facet normal -1 0 0
    outer loop
      vertex -1.5 -49.999 3.5
      vertex -1.5 -40.0114 9.5
      vertex -1.5 -14.9994 3.5
    endloop
  endfacet
  facet normal -1 0 0
    outer loop
      vertex -1.5 -40.0114 9.5
      vertex -1.5 -49.999 3.5
      vertex -1.5 -49.999 8.62621
    endloop
  endfacet
  facet normal -0 0 1
    outer loop
      vertex -10.5 -14.9997 3.5
      vertex -1.5 -49.999 3.5
      vertex -1.5 -14.9994 3.5
    endloop
  endfacet
  facet normal 0 0 1
    outer loop
      vertex -1.5 -49.999 3.5
      vertex -10.5 -14.9997 3.5
      vertex -10.5 -49.999 3.5
    endloop
  endfacet
  facet normal 0 -0.0871549 0.996195
    outer loop
      vertex -10.5 -40.0114 9.5
      vertex -12.6262 -49.999 8.62621
      vertex -10.5 -49.999 8.62621
    endloop
  endfacet
  facet normal 0 -0.0871549 0.996195
    outer loop
      vertex -12.6262 -49.999 8.62621
      vertex -10.5 -40.0114 9.5
      vertex -13.5 -40.0114 9.5
    endloop
  endfacet
  facet normal 0 -0.0871549 0.996195
    outer loop
      vertex -1.5 -40.0114 9.5
      vertex 0.626209 -49.999 8.62621
      vertex 1.5 -40.0114 9.5
    endloop
  endfacet
  facet normal 0 -0.0871549 0.996195
    outer loop
      vertex 0.626209 -49.999 8.62621
      vertex -1.5 -40.0114 9.5
      vertex -1.5 -49.999 8.62621
    endloop
  endfacet
  facet normal 0.996195 -0.0871549 0
    outer loop
      vertex 0.626209 -49.999 8.62621
      vertex 1.5 -40.0114 1.5
      vertex 1.5 -40.0114 9.5
    endloop
  endfacet
  facet normal 0.996195 -0.0871549 0
    outer loop
      vertex 1.5 -40.0114 1.5
      vertex 0.626209 -49.999 8.62621
      vertex 0.626209 -49.999 1.5
    endloop
  endfacet
  facet normal -0.996195 -0.0871549 -0
    outer loop
      vertex -12.6262 -49.999 8.62621
      vertex -13.5 -40.0114 1.5
      vertex -12.6262 -49.999 1.5
    endloop
  endfacet
  facet normal -0.996195 -0.0871549 0
    outer loop
      vertex -13.5 -40.0114 1.5
      vertex -12.6262 -49.999 8.62621
      vertex -13.5 -40.0114 9.5
    endloop
  endfacet
  facet normal 0 -1 0
    outer loop
      vertex 15 -1.5 1.5
      vertex 40.0114 -1.5 9.5
      vertex 15 -1.5 9.5
    endloop
  endfacet
  facet normal 0 -1 -0
    outer loop
      vertex 40.0114 -1.5 9.5
      vertex 15 -1.5 1.5
      vertex 40.0114 -1.5 1.5
    endloop
  endfacet
  facet normal -0 0 1
    outer loop
      vertex 15 13.5 9.5
      vertex 40.0114 10.5 9.5
      vertex 40.0114 13.5 9.5
    endloop
  endfacet
  facet normal 0 0 1
    outer loop
      vertex 40.0114 10.5 9.5
      vertex 15 13.5 9.5
      vertex 15 10.5 9.5
    endloop
  endfacet
  facet normal -0 0 1
    outer loop
      vertex 15 1.5 9.5
      vertex 40.0114 -1.5 9.5
      vertex 40.0114 1.5 9.5
    endloop
  endfacet
  facet normal 0 0 1
    outer loop
      vertex 40.0114 -1.5 9.5
      vertex 15 1.5 9.5
      vertex 15 -1.5 9.5
    endloop
  endfacet
  facet normal 0 1 -0
    outer loop
      vertex 40.0114 13.5 1.5
      vertex 15 13.5 9.5
      vertex 40.0114 13.5 9.5
    endloop
  endfacet
  facet normal 0 1 0
    outer loop
      vertex 15 13.5 9.5
      vertex 40.0114 13.5 1.5
      vertex 15 13.5 1.5
    endloop
  endfacet
  facet normal 0 0 -1
    outer loop
      vertex 40.0114 -1.5 1.5
      vertex 49.999 12.6262 1.5
      vertex 49.999 -0.626209 1.5
    endloop
  endfacet
  facet normal 0 0 -1
    outer loop
      vertex 40.0114 -1.5 1.5
      vertex 40.0114 13.5 1.5
      vertex 49.999 12.6262 1.5
    endloop
  endfacet
  facet normal 0 0 -1
    outer loop
      vertex 15 -1.5 1.5
      vertex 40.0114 13.5 1.5
      vertex 40.0114 -1.5 1.5
    endloop
  endfacet
  facet normal -0 0 -1
    outer loop
      vertex 40.0114 13.5 1.5
      vertex 15 -1.5 1.5
      vertex 15 13.5 1.5
    endloop
  endfacet
  facet normal 1 0 0
    outer loop
      vertex 49.999 1.5 8.62621
      vertex 49.999 -0.626209 8.62621
      vertex 49.999 1.5 3.5
    endloop
  endfacet
  facet normal 1 0 0
    outer loop
      vertex 49.999 10.5 3.5
      vertex 49.999 12.6262 8.62621
      vertex 49.999 10.5 8.62621
    endloop
  endfacet
  facet normal 1 0 0
    outer loop
      vertex 49.999 12.6262 8.62621
      vertex 49.999 10.5 3.5
      vertex 49.999 12.6262 1.5
    endloop
  endfacet
  facet normal 1 -0 0
    outer loop
      vertex 49.999 1.5 3.5
      vertex 49.999 12.6262 1.5
      vertex 49.999 10.5 3.5
    endloop
  endfacet
  facet normal 1 0 0
    outer loop
      vertex 49.999 1.5 3.5
      vertex 49.999 -0.626209 1.5
      vertex 49.999 12.6262 1.5
    endloop
  endfacet
  facet normal 1 0 0
    outer loop
      vertex 49.999 -0.626209 1.5
      vertex 49.999 1.5 3.5
      vertex 49.999 -0.626209 8.62621
    endloop
  endfacet
  facet normal 0 1 -0
    outer loop
      vertex 49.999 1.5 3.5
      vertex 40.0114 1.5 9.5
      vertex 49.999 1.5 8.62621
    endloop
  endfacet
  facet normal 0 1 0
    outer loop
      vertex 40.0114 1.5 9.5
      vertex 49.999 1.5 3.5
      vertex 15 1.5 3.5
    endloop
  endfacet
  facet normal 0 1 0
    outer loop
      vertex 40.0114 1.5 9.5
      vertex 15 1.5 3.5
      vertex 15 1.5 9.5
    endloop
  endfacet
  facet normal 0 -1 0
    outer loop
      vertex 15 10.5 3.5
      vertex 40.0114 10.5 9.5
      vertex 15 10.5 9.5
    endloop
  endfacet
  facet normal 0 -1 0
    outer loop
      vertex 49.999 10.5 3.5
      vertex 40.0114 10.5 9.5
      vertex 15 10.5 3.5
    endloop
  endfacet
  facet normal 0 -1 0
    outer loop
      vertex 40.0114 10.5 9.5
      vertex 49.999 10.5 3.5
      vertex 49.999 10.5 8.62621
    endloop
  endfacet
  facet normal -0 0 1
    outer loop
      vertex 15 10.5 3.5
      vertex 49.999 1.5 3.5
      vertex 49.999 10.5 3.5
    endloop
  endfacet
  facet normal 0 0 1
    outer loop
      vertex 49.999 1.5 3.5
      vertex 15 10.5 3.5
      vertex 15 1.5 3.5
    endloop
  endfacet
  facet normal 0.0871549 0 0.996195
    outer loop
      vertex 40.0114 1.5 9.5
      vertex 49.999 -0.626209 8.62621
      vertex 49.999 1.5 8.62621
    endloop
  endfacet
  facet normal 0.0871549 0 0.996195
    outer loop
      vertex 49.999 -0.626209 8.62621
      vertex 40.0114 1.5 9.5
      vertex 40.0114 -1.5 9.5
    endloop
  endfacet
  facet normal 0.0871549 -0 0.996195
    outer loop
      vertex 40.0114 10.5 9.5
      vertex 49.999 12.6262 8.62621
      vertex 40.0114 13.5 9.5
    endloop
  endfacet
  facet normal 0.0871549 0 0.996195
    outer loop
      vertex 49.999 12.6262 8.62621
      vertex 40.0114 10.5 9.5
      vertex 49.999 10.5 8.62621
    endloop
  endfacet
  facet normal 0.0871549 0.996195 0
    outer loop
      vertex 40.0114 13.5 1.5
      vertex 49.999 12.6262 8.62621
      vertex 49.999 12.6262 1.5
    endloop
  endfacet
  facet normal 0.0871549 0.996195 0
    outer loop
      vertex 49.999 12.6262 8.62621
      vertex 40.0114 13.5 1.5
      vertex 40.0114 13.5 9.5
    endloop
  endfacet
  facet normal 0.0871549 -0.996195 0
    outer loop
      vertex 40.0114 -1.5 1.5
      vertex 49.999 -0.626209 8.62621
      vertex 40.0114 -1.5 9.5
    endloop
  endfacet
  facet normal 0.0871549 -0.996195 0
    outer loop
      vertex 49.999 -0.626209 8.62621
      vertex 40.0114 -1.5 1.5
      vertex 49.999 -0.626209 1.5
    endloop
  endfacet
  facet normal 0.308505 0.951223 -0
    outer loop
      vertex 14.995 14.9986 0
      vertex 14.991 14.9999 10.6
      vertex 14.995 14.9986 10.6
    endloop
  endfacet
  facet normal 0.308505 0.951223 0
    outer loop
      vertex 14.991 14.9999 10.6
      vertex 14.995 14.9986 0
      vertex 14.991 14.9999 0
    endloop
  endfacet
  facet normal -1 -2.90039e-005 0
    outer loop
      vertex -14.9991 -14.994 0
      vertex -14.9999 12.0012 10.6
      vertex -14.9999 12.0012 0
    endloop
  endfacet
  facet normal -1 -2.90039e-005 0
    outer loop
      vertex -14.9999 12.0012 10.6
      vertex -14.9991 -14.994 0
      vertex -14.9991 -14.994 10.6
    endloop
  endfacet
  facet normal 0.8656 0.500735 0
    outer loop
      vertex 15 14.99 10.6
      vertex 14.995 14.9986 0
      vertex 14.995 14.9986 10.6
    endloop
  endfacet
  facet normal 0.8656 0.500735 0
    outer loop
      vertex 14.995 14.9986 0
      vertex 15 14.99 10.6
      vertex 15 14.99 0
    endloop
  endfacet
  facet normal -4.27307e-005 1 0
    outer loop
      vertex 14.991 14.9999 0
      vertex -12.0141 14.9988 10.6
      vertex 14.991 14.9999 10.6
    endloop
  endfacet
  facet normal -4.27307e-005 1 0
    outer loop
      vertex -12.0141 14.9988 10.6
      vertex 14.991 14.9999 0
      vertex -12.0141 14.9988 0
    endloop
  endfacet
  facet normal -0.587718 -0.809066 0
    outer loop
      vertex -14.9991 -14.994 10.6
      vertex -14.991 -14.9999 2
      vertex -14.991 -14.9999 10.6
    endloop
  endfacet
  facet normal -0.587718 -0.809066 0
    outer loop
      vertex -14.9991 -14.994 0
      vertex -14.991 -14.9999 2
      vertex -14.9991 -14.994 10.6
    endloop
  endfacet
  facet normal -0.587718 -0.809066 -0
    outer loop
      vertex -14.991 -14.9999 2
      vertex -14.9991 -14.994 0
      vertex -14.991 -14.9999 0
    endloop
  endfacet
  facet normal 0 0 -1
    outer loop
      vertex 14.991 14.9999 0
      vertex 15 14.99 0
      vertex 15 -9 0
    endloop
  endfacet
  facet normal 0 0 -1
    outer loop
      vertex 9 -14.9989 0
      vertex 15 -9 0
      vertex 15 -12.002 0
    endloop
  endfacet
  facet normal 0 0 -1
    outer loop
      vertex 15 14.99 0
      vertex 14.991 14.9999 0
      vertex 14.995 14.9986 0
    endloop
  endfacet
  facet normal 0 0 -1
    outer loop
      vertex 9 -14.9989 0
      vertex 15 -12.002 0
      vertex 12.002 -15 0
    endloop
  endfacet
  facet normal 0 0 -1
    outer loop
      vertex 9 -14.9989 0
      vertex 12.002 -15 0
      vertex 9 -15 0
    endloop
  endfacet
  facet normal 0 0 -1
    outer loop
      vertex -12.0141 14.9988 0
      vertex 15 -9 0
      vertex 9 -14.9989 0
    endloop
  endfacet
  facet normal 0 0 -1
    outer loop
      vertex 15 -9 0
      vertex -12.0141 14.9988 0
      vertex 14.991 14.9999 0
    endloop
  endfacet
  facet normal 0 0 -1
    outer loop
      vertex -14.9999 12.0012 0
      vertex -12.0141 14.9988 0
      vertex 9 -14.9989 0
    endloop
  endfacet
  facet normal 0 0 -1
    outer loop
      vertex -12.0141 14.9988 0
      vertex -14.9999 12.0012 0
      vertex -12.5209 14.9544 0
    endloop
  endfacet
  facet normal 0 0 -1
    outer loop
      vertex -12.5209 14.9544 0
      vertex -14.9999 12.0012 0
      vertex -13.026 14.8191 0
    endloop
  endfacet
  facet normal 0 0 -1
    outer loop
      vertex -13.026 14.8191 0
      vertex -14.9999 12.0012 0
      vertex -13.5 14.5981 0
    endloop
  endfacet
  facet normal 0 0 -1
    outer loop
      vertex -13.5 14.5981 0
      vertex -14.9999 12.0012 0
      vertex -13.9284 14.2981 0
    endloop
  endfacet
  facet normal 0 0 -1
    outer loop
      vertex -13.9284 14.2981 0
      vertex -14.9999 12.0012 0
      vertex -14.2981 13.9284 0
    endloop
  endfacet
  facet normal 0 0 -1
    outer loop
      vertex -14.2981 13.9284 0
      vertex -14.9999 12.0012 0
      vertex -14.5981 13.5 0
    endloop
  endfacet
  facet normal 0 0 -1
    outer loop
      vertex -14.5981 13.5 0
      vertex -14.9999 12.0012 0
      vertex -14.8191 13.026 0
    endloop
  endfacet
  facet normal 0 0 -1
    outer loop
      vertex -14.9999 12.0012 0
      vertex 9 -14.9989 0
      vertex -14.991 -14.9999 0
    endloop
  endfacet
  facet normal 0 0 -1
    outer loop
      vertex -14.9999 12.0012 0
      vertex -14.991 -14.9999 0
      vertex -14.9991 -14.994 0
    endloop
  endfacet
  facet normal 0 0 -1
    outer loop
      vertex -14.8191 13.026 0
      vertex -14.9999 12.0012 0
      vertex -14.9544 12.5209 0
    endloop
  endfacet
  facet normal 0 0 1
    outer loop
      vertex 9.31183 11.9671 2
      vertex 12 8.84276 2
      vertex 11.9183 9.6203 2
    endloop
  endfacet
  facet normal 0 0 1
    outer loop
      vertex 9.31183 11.9671 2
      vertex 11.9183 9.6203 2
      vertex 11.7255 10.2134 2
    endloop
  endfacet
  facet normal 0 0 1
    outer loop
      vertex 9.31183 11.9671 2
      vertex 11.7255 10.2134 2
      vertex 11.4137 10.7536 2
    endloop
  endfacet
  facet normal 0 0 1
    outer loop
      vertex 9.31183 11.9671 2
      vertex 11.4137 10.7536 2
      vertex 10.9963 11.2172 2
    endloop
  endfacet
  facet normal 0 0 1
    outer loop
      vertex 9.31183 11.9671 2
      vertex 10.9963 11.2172 2
      vertex 10.4917 11.5838 2
    endloop
  endfacet
  facet normal 0 0 1
    outer loop
      vertex 9.31183 11.9671 2
      vertex 10.4917 11.5838 2
      vertex 9.92198 11.8374 2
    endloop
  endfacet
  facet normal 0 0 1
    outer loop
      vertex 12 8.84276 2
      vertex 9.31183 11.9671 2
      vertex 6.58189 -0.0219269 2
    endloop
  endfacet
  facet normal 0 0 1
    outer loop
      vertex 12 8.84276 2
      vertex 6.58189 -0.0219269 2
      vertex 12 -0.0219269 2
    endloop
  endfacet
  facet normal 0 0 1
    outer loop
      vertex 9.31183 11.9671 2
      vertex 5.95816 -0.0874786 2
      vertex 6.58189 -0.0219269 2
    endloop
  endfacet
  facet normal 0 0 1
    outer loop
      vertex 9.31183 11.9671 2
      vertex 5.14021 -0.261337 2
      vertex 5.95816 -0.0874786 2
    endloop
  endfacet
  facet normal 0 0 1
    outer loop
      vertex 9.31183 11.9671 2
      vertex 4.54375 -0.455139 2
      vertex 5.14021 -0.261337 2
    endloop
  endfacet
  facet normal 0 0 1
    outer loop
      vertex 9.31183 11.9671 2
      vertex 3.77982 -0.795258 2
      vertex 4.54375 -0.455139 2
    endloop
  endfacet
  facet normal -0 0 1
    outer loop
      vertex -9.31183 11.9671 2
      vertex 3.77982 -0.795258 2
      vertex 9.31183 11.9671 2
    endloop
  endfacet
  facet normal 0 0 1
    outer loop
      vertex 3.77982 -0.795258 2
      vertex -9.31183 11.9671 2
      vertex 3.23665 -1.10886 2
    endloop
  endfacet
  facet normal 0 0 1
    outer loop
      vertex 3.23665 -1.10886 2
      vertex -9.31183 11.9671 2
      vertex 2.56012 -1.60039 2
    endloop
  endfacet
  facet normal 0 0 1
    outer loop
      vertex 2.56012 -1.60039 2
      vertex -9.31183 11.9671 2
      vertex 2.09406 -2.02003 2
    endloop
  endfacet
  facet normal -0 0 1
    outer loop
      vertex -12 8.84276 2
      vertex 2.09406 -2.02003 2
      vertex -9.31183 11.9671 2
    endloop
  endfacet
  facet normal 0 0 1
    outer loop
      vertex 2.09406 -2.02003 2
      vertex -12 8.84276 2
      vertex 1.53452 -2.64146 2
    endloop
  endfacet
  facet normal 0 0 1
    outer loop
      vertex 1.53452 -2.64146 2
      vertex -12 8.84276 2
      vertex 1.16588 -3.14885 2
    endloop
  endfacet
  facet normal 0 0 1
    outer loop
      vertex 1.16588 -3.14885 2
      vertex -12 8.84276 2
      vertex 0.747757 -3.87305 2
    endloop
  endfacet
  facet normal 0 0 1
    outer loop
      vertex -12 -8.84276 2
      vertex 0.747757 -3.87305 2
      vertex -12 8.84276 2
    endloop
  endfacet
  facet normal 0 0 1
    outer loop
      vertex 0.747757 -3.87305 2
      vertex -12 -8.84276 2
      vertex 0.492661 -4.44601 2
    endloop
  endfacet
  facet normal 0 0 1
    outer loop
      vertex 0.492661 -4.44601 2
      vertex -12 -8.84276 2
      vertex 0.234253 -5.24132 2
    endloop
  endfacet
  facet normal 0 0 1
    outer loop
      vertex 0.234253 -5.24132 2
      vertex -12 -8.84276 2
      vertex 0.103851 -5.85475 2
    endloop
  endfacet
  facet normal 0 0 1
    outer loop
      vertex 0.103851 -5.85475 2
      vertex -12 -8.84276 2
      vertex 0.0164337 -6.68639 2
    endloop
  endfacet
  facet normal 0 0 1
    outer loop
      vertex 0.0164337 -6.68639 2
      vertex -12 -8.84276 2
      vertex 0 -7 2
    endloop
  endfacet
  facet normal 0 0 1
    outer loop
      vertex -11.9183 9.6203 2
      vertex -9.31183 11.9671 2
      vertex -9.92195 11.8374 2
    endloop
  endfacet
  facet normal 0 -0 1
    outer loop
      vertex -9.31183 -11.9671 2
      vertex 0 -7 2
      vertex -12 -8.84276 2
    endloop
  endfacet
  facet normal 0 0 1
    outer loop
      vertex -11.9183 9.6203 2
      vertex -9.92195 11.8374 2
      vertex -10.4917 11.5838 2
    endloop
  endfacet
  facet normal 0 0 1
    outer loop
      vertex 0 -7 2
      vertex -9.31183 -11.9671 2
      vertex 0 -11.9671 2
    endloop
  endfacet
  facet normal 0 0 1
    outer loop
      vertex -9.31183 -11.9671 2
      vertex -11.9183 -9.6203 2
      vertex -9.92198 -11.8374 2
    endloop
  endfacet
  facet normal 0 0 1
    outer loop
      vertex -11.9183 9.6203 2
      vertex -10.4917 11.5838 2
      vertex -10.9963 11.2171 2
    endloop
  endfacet
  facet normal 0 0 1
    outer loop
      vertex -11.9183 9.6203 2
      vertex -10.9963 11.2171 2
      vertex -11.4137 10.7536 2
    endloop
  endfacet
  facet normal -0 -0 1
    outer loop
      vertex -11.9183 -9.6203 2
      vertex -9.31183 -11.9671 2
      vertex -12 -8.84276 2
    endloop
  endfacet
  facet normal 0 0 1
    outer loop
      vertex -11.9183 9.6203 2
      vertex -11.4137 10.7536 2
      vertex -11.7255 10.2134 2
    endloop
  endfacet
  facet normal 0 0 1
    outer loop
      vertex -9.92198 -11.8374 2
      vertex -11.9183 -9.6203 2
      vertex -10.4917 -11.5838 2
    endloop
  endfacet
  facet normal 0 0 1
    outer loop
      vertex -9.31183 11.9671 2
      vertex -11.9183 9.6203 2
      vertex -12 8.84276 2
    endloop
  endfacet
  facet normal 0 0 1
    outer loop
      vertex -10.4917 -11.5838 2
      vertex -11.9183 -9.6203 2
      vertex -10.9963 -11.2172 2
    endloop
  endfacet
  facet normal 0 0 1
    outer loop
      vertex -10.9963 -11.2172 2
      vertex -11.9183 -9.6203 2
      vertex -11.4137 -10.7536 2
    endloop
  endfacet
  facet normal 0 0 1
    outer loop
      vertex -11.4137 -10.7536 2
      vertex -11.9183 -9.6203 2
      vertex -11.7255 -10.2134 2
    endloop
  endfacet
  facet normal 0 0 1
    outer loop
      vertex 15 -3.02193 2
      vertex 12 -8.90001 2
      vertex 15 -9 2
    endloop
  endfacet
  facet normal -0 0 1
    outer loop
      vertex 6.58189 -3.02193 2
      vertex 12 -8.90001 2
      vertex 15 -3.02193 2
    endloop
  endfacet
  facet normal -0 0 1
    outer loop
      vertex 5.76395 -3.19579 2
      vertex 8.90001 -8.90001 2
      vertex 6.58189 -3.02193 2
    endloop
  endfacet
  facet normal 0 0 1
    outer loop
      vertex 12 -8.90001 2
      vertex 6.58189 -3.02193 2
      vertex 8.90001 -8.90001 2
    endloop
  endfacet
  facet normal 0 0 1
    outer loop
      vertex 15 -9 2
      vertex 12 -8.90001 2
      vertex 12 -9 2
    endloop
  endfacet
  facet normal -0 0 1
    outer loop
      vertex 8.90001 -12 2
      vertex 9 -14.9989 2
      vertex 9 -12 2
    endloop
  endfacet
  facet normal 0 0 1
    outer loop
      vertex 8.90001 -8.90001 2
      vertex 3 -7 2
      vertex 8.90001 -12 2
    endloop
  endfacet
  facet normal -0 0 1
    outer loop
      vertex 5.00002 -3.5359 2
      vertex 8.90001 -8.90001 2
      vertex 5.76395 -3.19579 2
    endloop
  endfacet
  facet normal -0 0 1
    outer loop
      vertex 4.32349 -4.02744 2
      vertex 8.90001 -8.90001 2
      vertex 5.00002 -3.5359 2
    endloop
  endfacet
  facet normal -0 0 1
    outer loop
      vertex 3.76395 -4.64886 2
      vertex 8.90001 -8.90001 2
      vertex 4.32349 -4.02744 2
    endloop
  endfacet
  facet normal -0 0 1
    outer loop
      vertex 3.34583 -5.37306 2
      vertex 8.90001 -8.90001 2
      vertex 3.76395 -4.64886 2
    endloop
  endfacet
  facet normal -0 0 1
    outer loop
      vertex 3.08742 -6.16837 2
      vertex 8.90001 -8.90001 2
      vertex 3.34583 -5.37306 2
    endloop
  endfacet
  facet normal 0 0 1
    outer loop
      vertex 8.90001 -8.90001 2
      vertex 3.08742 -6.16837 2
      vertex 3 -7 2
    endloop
  endfacet
  facet normal 0 0 1
    outer loop
      vertex 3 -14.9992 2
      vertex 8.90001 -12 2
      vertex 3 -7 2
    endloop
  endfacet
  facet normal 0 0 1
    outer loop
      vertex 8.90001 -12 2
      vertex 3 -14.9992 2
      vertex 9 -14.9989 2
    endloop
  endfacet
  facet normal 0 0 1
    outer loop
      vertex 12 -8.90001 2
      vertex 11.4791 -9.04558 2
      vertex 12 -9 2
    endloop
  endfacet
  facet normal -0 0 1
    outer loop
      vertex 8.90001 -8.90001 2
      vertex 11.4791 -9.04558 2
      vertex 12 -8.90001 2
    endloop
  endfacet
  facet normal 0 0 1
    outer loop
      vertex 11.4791 -9.04558 2
      vertex 8.90001 -8.90001 2
      vertex 10.974 -9.18092 2
    endloop
  endfacet
  facet normal 0 0 1
    outer loop
      vertex 8.90001 -8.90001 2
      vertex 10.5 -9.40193 2
      vertex 10.974 -9.18092 2
    endloop
  endfacet
  facet normal 0 0 1
    outer loop
      vertex 8.90001 -8.90001 2
      vertex 10.0716 -9.70187 2
      vertex 10.5 -9.40193 2
    endloop
  endfacet
  facet normal 0 0 1
    outer loop
      vertex 8.90001 -8.90001 2
      vertex 9.70187 -10.0716 2
      vertex 10.0716 -9.70187 2
    endloop
  endfacet
  facet normal 0 0 1
    outer loop
      vertex 8.90001 -8.90001 2
      vertex 9.40193 -10.5 2
      vertex 9.70187 -10.0716 2
    endloop
  endfacet
  facet normal 0 0 1
    outer loop
      vertex 8.90001 -8.90001 2
      vertex 9.18092 -10.974 2
      vertex 9.40193 -10.5 2
    endloop
  endfacet
  facet normal 0 0 1
    outer loop
      vertex 8.90001 -8.90001 2
      vertex 9.04558 -11.4791 2
      vertex 9.18092 -10.974 2
    endloop
  endfacet
  facet normal 0 0 1
    outer loop
      vertex 8.90001 -12 2
      vertex 9.04558 -11.4791 2
      vertex 8.90001 -8.90001 2
    endloop
  endfacet
  facet normal 0 0 1
    outer loop
      vertex 9.04558 -11.4791 2
      vertex 8.90001 -12 2
      vertex 9 -12 2
    endloop
  endfacet
  facet normal 4.28538e-005 -1 0
    outer loop
      vertex -14.991 -14.9999 2
      vertex -13.5 -14.9999 1.5
      vertex -13.5 -14.9999 2
    endloop
  endfacet
  facet normal 4.27246e-005 -1 1.28398e-007
    outer loop
      vertex -13.5 -14.9999 1.5
      vertex -14.991 -14.9999 0
      vertex 1.5 -14.9992 1.5
    endloop
  endfacet
  facet normal 4.28538e-005 -1 0
    outer loop
      vertex -14.991 -14.9999 0
      vertex -13.5 -14.9999 1.5
      vertex -14.991 -14.9999 2
    endloop
  endfacet
  facet normal 4.25975e-005 -1 0
    outer loop
      vertex 1.5 -14.9992 1.5
      vertex 3 -14.9992 2
      vertex 1.5 -14.9992 2
    endloop
  endfacet
  facet normal 4.26769e-005 -1 -2.38419e-007
    outer loop
      vertex 9 -14.9989 0
      vertex 3 -14.9992 2
      vertex 1.5 -14.9992 1.5
    endloop
  endfacet
  facet normal 4.27326e-005 -1 4.01395e-008
    outer loop
      vertex 9 -14.9989 0
      vertex 1.5 -14.9992 1.5
      vertex -14.991 -14.9999 0
    endloop
  endfacet
  facet normal 4.27564e-005 -1 0
    outer loop
      vertex 3 -14.9992 2
      vertex 9 -14.9989 0
      vertex 9 -14.9989 2
    endloop
  endfacet
  facet normal 1 0 0
    outer loop
      vertex 15 13.5 1.5
      vertex 15 14.99 10.6
      vertex 15 13.5 9.5
    endloop
  endfacet
  facet normal 1 0 0
    outer loop
      vertex 15 14.99 10.6
      vertex 15 10.5 9.5
      vertex 15 13.5 9.5
    endloop
  endfacet
  facet normal 1 0 0
    outer loop
      vertex 15 10.5 9.5
      vertex 15 1.5 9.5
      vertex 15 10.5 3.5
    endloop
  endfacet
  facet normal 1 0 0
    outer loop
      vertex 15 14.99 10.6
      vertex 15 1.5 9.5
      vertex 15 10.5 9.5
    endloop
  endfacet
  facet normal 1 -0 0
    outer loop
      vertex 15 -3.02193 10.6
      vertex 15 1.5 9.5
      vertex 15 14.99 10.6
    endloop
  endfacet
  facet normal 1 0 0
    outer loop
      vertex 15 -3.02193 2
      vertex 15 -1.5 9.5
      vertex 15 -3.02193 10.6
    endloop
  endfacet
  facet normal 1 0 0
    outer loop
      vertex 15 1.5 9.5
      vertex 15 -3.02193 10.6
      vertex 15 -1.5 9.5
    endloop
  endfacet
  facet normal 1 0 0
    outer loop
      vertex 15 14.99 10.6
      vertex 15 13.5 1.5
      vertex 15 14.99 0
    endloop
  endfacet
  facet normal 1 -0 0
    outer loop
      vertex 15 -1.5 1.5
      vertex 15 14.99 0
      vertex 15 13.5 1.5
    endloop
  endfacet
  facet normal 1 0 0
    outer loop
      vertex 15 -1.5 9.5
      vertex 15 -3.02193 2
      vertex 15 -1.5 1.5
    endloop
  endfacet
  facet normal 1 0 0
    outer loop
      vertex 15 -9 0
      vertex 15 -3.02193 2
      vertex 15 -9 2
    endloop
  endfacet
  facet normal 1 0 0
    outer loop
      vertex 15 -3.02193 2
      vertex 15 -9 0
      vertex 15 -1.5 1.5
    endloop
  endfacet
  facet normal 1 0 0
    outer loop
      vertex 15 -1.5 1.5
      vertex 15 -9 0
      vertex 15 14.99 0
    endloop
  endfacet
  facet normal 1 0 0
    outer loop
      vertex 15 10.5 3.5
      vertex 15 1.5 9.5
      vertex 15 1.5 3.5
    endloop
  endfacet
  facet normal 0 0 1
    outer loop
      vertex 15 14.99 10.6
      vertex 11.9183 9.6203 10.6
      vertex 12 8.84276 10.6
    endloop
  endfacet
  facet normal 0 0 1
    outer loop
      vertex 15 14.99 10.6
      vertex 11.7255 10.2134 10.6
      vertex 11.9183 9.6203 10.6
    endloop
  endfacet
  facet normal 0 0 1
    outer loop
      vertex 15 14.99 10.6
      vertex 11.4137 10.7536 10.6
      vertex 11.7255 10.2134 10.6
    endloop
  endfacet
  facet normal 0 0 1
    outer loop
      vertex 15 14.99 10.6
      vertex 10.9963 11.2172 10.6
      vertex 11.4137 10.7536 10.6
    endloop
  endfacet
  facet normal 0 0 1
    outer loop
      vertex 14.991 14.9999 10.6
      vertex 10.4917 11.5838 10.6
      vertex 10.9963 11.2172 10.6
    endloop
  endfacet
  facet normal 0 0 1
    outer loop
      vertex 14.991 14.9999 10.6
      vertex 9.92198 11.8374 10.6
      vertex 10.4917 11.5838 10.6
    endloop
  endfacet
  facet normal 0 0 1
    outer loop
      vertex 14.991 14.9999 10.6
      vertex 9.31183 11.9671 10.6
      vertex 9.92198 11.8374 10.6
    endloop
  endfacet
  facet normal -0 0 1
    outer loop
      vertex -12.0141 14.9988 10.6
      vertex 9.31183 11.9671 10.6
      vertex 14.991 14.9999 10.6
    endloop
  endfacet
  facet normal 0 0 1
    outer loop
      vertex -11.9183 9.6203 10.6
      vertex -14.9999 12.0012 10.6
      vertex -12 8.84276 10.6
    endloop
  endfacet
  facet normal 0 0 1
    outer loop
      vertex -11.7255 10.2134 10.6
      vertex -14.9999 12.0012 10.6
      vertex -11.9183 9.6203 10.6
    endloop
  endfacet
  facet normal 0 0 1
    outer loop
      vertex -11.4137 10.7536 10.6
      vertex -14.9999 12.0012 10.6
      vertex -11.7255 10.2134 10.6
    endloop
  endfacet
  facet normal 0 0 1
    outer loop
      vertex -10.9963 11.2171 10.6
      vertex -14.9999 12.0012 10.6
      vertex -11.4137 10.7536 10.6
    endloop
  endfacet
  facet normal -0 0 1
    outer loop
      vertex -14.9999 12.0012 10.6
      vertex -10.9963 11.2171 10.6
      vertex -12.0141 14.9988 10.6
    endloop
  endfacet
  facet normal 0 0 1
    outer loop
      vertex -10.4917 11.5838 10.6
      vertex -12.0141 14.9988 10.6
      vertex -10.9963 11.2171 10.6
    endloop
  endfacet
  facet normal 0 0 1
    outer loop
      vertex -9.92195 11.8374 10.6
      vertex -12.0141 14.9988 10.6
      vertex -10.4917 11.5838 10.6
    endloop
  endfacet
  facet normal 0 0 1
    outer loop
      vertex -9.31183 11.9671 10.6
      vertex -12.0141 14.9988 10.6
      vertex -9.92195 11.8374 10.6
    endloop
  endfacet
  facet normal 0 0 1
    outer loop
      vertex 9.31183 11.9671 10.6
      vertex -12.0141 14.9988 10.6
      vertex -9.31183 11.9671 10.6
    endloop
  endfacet
  facet normal 0 0 1
    outer loop
      vertex 14.991 14.9999 10.6
      vertex 15 14.99 10.6
      vertex 14.995 14.9986 10.6
    endloop
  endfacet
  facet normal 0 0 1
    outer loop
      vertex 10.9963 11.2172 10.6
      vertex 15 14.99 10.6
      vertex 14.991 14.9999 10.6
    endloop
  endfacet
  facet normal 0 0 1
    outer loop
      vertex 15 14.99 10.6
      vertex 12 8.84276 10.6
      vertex 15 -3.02193 10.6
    endloop
  endfacet
  facet normal -0 0 1
    outer loop
      vertex 12 -0.0219269 10.6
      vertex 15 -3.02193 10.6
      vertex 12 8.84276 10.6
    endloop
  endfacet
  facet normal 0 0 1
    outer loop
      vertex 6.58189 -3.02193 10.6
      vertex 12 -0.0219269 10.6
      vertex 6.58189 -0.0219269 10.6
    endloop
  endfacet
  facet normal 0 0 1
    outer loop
      vertex 12 -0.0219269 10.6
      vertex 6.58189 -3.02193 10.6
      vertex 15 -3.02193 10.6
    endloop
  endfacet
  facet normal -0 0 1
    outer loop
      vertex 5.95816 -0.0874786 10.6
      vertex 6.58189 -3.02193 10.6
      vertex 6.58189 -0.0219269 10.6
    endloop
  endfacet
  facet normal 0 0 1
    outer loop
      vertex 5.95816 -0.0874786 10.6
      vertex 5.76395 -3.19579 10.6
      vertex 6.58189 -3.02193 10.6
    endloop
  endfacet
  facet normal -0 0 1
    outer loop
      vertex 5.14021 -0.261337 10.6
      vertex 5.76395 -3.19579 10.6
      vertex 5.95816 -0.0874786 10.6
    endloop
  endfacet
  facet normal -0 0 1
    outer loop
      vertex 4.54375 -0.455139 10.6
      vertex 5.76395 -3.19579 10.6
      vertex 5.14021 -0.261337 10.6
    endloop
  endfacet
  facet normal 0 0 1
    outer loop
      vertex 5.76395 -3.19579 10.6
      vertex 4.54375 -0.455139 10.6
      vertex 5.00002 -3.5359 10.6
    endloop
  endfacet
  facet normal -0 0 1
    outer loop
      vertex 3.77982 -0.795258 10.6
      vertex 5.00002 -3.5359 10.6
      vertex 4.54375 -0.455139 10.6
    endloop
  endfacet
  facet normal -0 0 1
    outer loop
      vertex 3.23665 -1.10886 10.6
      vertex 5.00002 -3.5359 10.6
      vertex 3.77982 -0.795258 10.6
    endloop
  endfacet
  facet normal 0 0 1
    outer loop
      vertex 5.00002 -3.5359 10.6
      vertex 3.23665 -1.10886 10.6
      vertex 4.32349 -4.02744 10.6
    endloop
  endfacet
  facet normal -0 0 1
    outer loop
      vertex 2.56012 -1.60039 10.6
      vertex 4.32349 -4.02744 10.6
      vertex 3.23665 -1.10886 10.6
    endloop
  endfacet
  facet normal -0 0 1
    outer loop
      vertex 2.09406 -2.02003 10.6
      vertex 4.32349 -4.02744 10.6
      vertex 2.56012 -1.60039 10.6
    endloop
  endfacet
  facet normal 0 0 1
    outer loop
      vertex 4.32349 -4.02744 10.6
      vertex 2.09406 -2.02003 10.6
      vertex 3.76395 -4.64886 10.6
    endloop
  endfacet
  facet normal -0 0 1
    outer loop
      vertex 1.53452 -2.64146 10.6
      vertex 3.76395 -4.64886 10.6
      vertex 2.09406 -2.02003 10.6
    endloop
  endfacet
  facet normal -0 0 1
    outer loop
      vertex 1.16588 -3.14885 10.6
      vertex 3.76395 -4.64886 10.6
      vertex 1.53452 -2.64146 10.6
    endloop
  endfacet
  facet normal 0 0 1
    outer loop
      vertex 3.76395 -4.64886 10.6
      vertex 1.16588 -3.14885 10.6
      vertex 3.34583 -5.37306 10.6
    endloop
  endfacet
  facet normal -0 0 1
    outer loop
      vertex 0.747757 -3.87305 10.6
      vertex 3.34583 -5.37306 10.6
      vertex 1.16588 -3.14885 10.6
    endloop
  endfacet
  facet normal -0 0 1
    outer loop
      vertex 0.492661 -4.44601 10.6
      vertex 3.34583 -5.37306 10.6
      vertex 0.747757 -3.87305 10.6
    endloop
  endfacet
  facet normal 0 0 1
    outer loop
      vertex 3.34583 -5.37306 10.6
      vertex 0.492661 -4.44601 10.6
      vertex 3.08742 -6.16837 10.6
    endloop
  endfacet
  facet normal -0 0 1
    outer loop
      vertex 0.234253 -5.24132 10.6
      vertex 3.08742 -6.16837 10.6
      vertex 0.492661 -4.44601 10.6
    endloop
  endfacet
  facet normal -0 0 1
    outer loop
      vertex 0.103851 -5.85475 10.6
      vertex 3.08742 -6.16837 10.6
      vertex 0.234253 -5.24132 10.6
    endloop
  endfacet
  facet normal 0 0 1
    outer loop
      vertex 3.08742 -6.16837 10.6
      vertex 0.103851 -5.85475 10.6
      vertex 3 -7 10.6
    endloop
  endfacet
  facet normal 0 0 1
    outer loop
      vertex 3 -7 10.6
      vertex 0.103851 -5.85475 10.6
      vertex 0.0164337 -6.68639 10.6
    endloop
  endfacet
  facet normal 0 0 1
    outer loop
      vertex 3 -7 10.6
      vertex 0.0164337 -6.68639 10.6
      vertex 0 -7 10.6
    endloop
  endfacet
  facet normal 0 0 1
    outer loop
      vertex 0 -11.9671 10.6
      vertex 3 -7 10.6
      vertex 0 -7 10.6
    endloop
  endfacet
  facet normal 0 0 1
    outer loop
      vertex 3 -7 10.6
      vertex 0 -11.9671 10.6
      vertex 3 -14.9992 10.6
    endloop
  endfacet
  facet normal -0 0 1
    outer loop
      vertex -9.31183 -11.9671 10.6
      vertex 3 -14.9992 10.6
      vertex 0 -11.9671 10.6
    endloop
  endfacet
  facet normal 0 0 1
    outer loop
      vertex -14.991 -14.9999 10.6
      vertex -9.31183 -11.9671 10.6
      vertex -9.92198 -11.8374 10.6
    endloop
  endfacet
  facet normal 0 0 1
    outer loop
      vertex -14.9999 12.0012 10.6
      vertex -12.0141 14.9988 10.6
      vertex -12.5209 14.9544 10.6
    endloop
  endfacet
  facet normal 0 0 1
    outer loop
      vertex -14.9999 12.0012 10.6
      vertex -12.5209 14.9544 10.6
      vertex -13.026 14.8191 10.6
    endloop
  endfacet
  facet normal 0 0 1
    outer loop
      vertex -14.9999 12.0012 10.6
      vertex -13.026 14.8191 10.6
      vertex -13.5 14.5981 10.6
    endloop
  endfacet
  facet normal 0 0 1
    outer loop
      vertex -14.9999 12.0012 10.6
      vertex -13.5 14.5981 10.6
      vertex -13.9284 14.2981 10.6
    endloop
  endfacet
  facet normal 0 0 1
    outer loop
      vertex -14.9999 12.0012 10.6
      vertex -13.9284 14.2981 10.6
      vertex -14.2981 13.9284 10.6
    endloop
  endfacet
  facet normal 0 0 1
    outer loop
      vertex -14.9999 12.0012 10.6
      vertex -14.2981 13.9284 10.6
      vertex -14.5981 13.5 10.6
    endloop
  endfacet
  facet normal 0 0 1
    outer loop
      vertex -12 8.84276 10.6
      vertex -14.9999 12.0012 10.6
      vertex -12 -8.84276 10.6
    endloop
  endfacet
  facet normal 0 0 1
    outer loop
      vertex -14.9999 12.0012 10.6
      vertex -14.5981 13.5 10.6
      vertex -14.8191 13.026 10.6
    endloop
  endfacet
  facet normal 0 0 1
    outer loop
      vertex -14.9999 12.0012 10.6
      vertex -14.8191 13.026 10.6
      vertex -14.9544 12.5209 10.6
    endloop
  endfacet
  facet normal 0 0 1
    outer loop
      vertex -9.31183 -11.9671 10.6
      vertex -14.991 -14.9999 10.6
      vertex 3 -14.9992 10.6
    endloop
  endfacet
  facet normal 0 0 1
    outer loop
      vertex -10.4917 -11.5838 10.6
      vertex -14.991 -14.9999 10.6
      vertex -9.92198 -11.8374 10.6
    endloop
  endfacet
  facet normal 0 0 1
    outer loop
      vertex -10.9963 -11.2172 10.6
      vertex -14.991 -14.9999 10.6
      vertex -10.4917 -11.5838 10.6
    endloop
  endfacet
  facet normal 0 0 1
    outer loop
      vertex -11.4137 -10.7536 10.6
      vertex -14.991 -14.9999 10.6
      vertex -10.9963 -11.2172 10.6
    endloop
  endfacet
  facet normal 0 0 1
    outer loop
      vertex -14.9991 -14.994 10.6
      vertex -11.4137 -10.7536 10.6
      vertex -11.7255 -10.2134 10.6
    endloop
  endfacet
  facet normal 0 0 1
    outer loop
      vertex -14.9991 -14.994 10.6
      vertex -11.7255 -10.2134 10.6
      vertex -11.9183 -9.6203 10.6
    endloop
  endfacet
  facet normal 0 -0 1
    outer loop
      vertex -14.9991 -14.994 10.6
      vertex -12 -8.84276 10.6
      vertex -14.9999 12.0012 10.6
    endloop
  endfacet
  facet normal 0 0 1
    outer loop
      vertex -12 -8.84276 10.6
      vertex -14.9991 -14.994 10.6
      vertex -11.9183 -9.6203 10.6
    endloop
  endfacet
  facet normal 0 0 1
    outer loop
      vertex -11.4137 -10.7536 10.6
      vertex -14.9991 -14.994 10.6
      vertex -14.991 -14.9999 10.6
    endloop
  endfacet
  facet normal 1 0 0
    outer loop
      vertex 3 -7 10.6
      vertex 3 -14.9992 2
      vertex 3 -7 2
    endloop
  endfacet
  facet normal 1 -0 0
    outer loop
      vertex 3 -14.9992 10.6
      vertex 3 -14.9992 2
      vertex 3 -7 10.6
    endloop
  endfacet
  facet normal 0.994521 -0.104539 0
    outer loop
      vertex 3 -7 10.6
      vertex 3.08742 -6.16837 2
      vertex 3.08742 -6.16837 10.6
    endloop
  endfacet
  facet normal 0.994521 -0.104539 0
    outer loop
      vertex 3.08742 -6.16837 2
      vertex 3 -7 10.6
      vertex 3 -7 2
    endloop
  endfacet
  facet normal 0.951057 -0.309015 0
    outer loop
      vertex 3.08742 -6.16837 10.6
      vertex 3.34583 -5.37306 2
      vertex 3.34583 -5.37306 10.6
    endloop
  endfacet
  facet normal 0.951057 -0.309015 0
    outer loop
      vertex 3.34583 -5.37306 2
      vertex 3.08742 -6.16837 10.6
      vertex 3.08742 -6.16837 2
    endloop
  endfacet
  facet normal 0.866022 -0.500005 0
    outer loop
      vertex 3.34583 -5.37306 10.6
      vertex 3.76395 -4.64886 2
      vertex 3.76395 -4.64886 10.6
    endloop
  endfacet
  facet normal 0.866022 -0.500005 0
    outer loop
      vertex 3.76395 -4.64886 2
      vertex 3.34583 -5.37306 10.6
      vertex 3.34583 -5.37306 2
    endloop
  endfacet
  facet normal 0.743144 -0.669132 0
    outer loop
      vertex 3.76395 -4.64886 10.6
      vertex 4.32349 -4.02744 2
      vertex 4.32349 -4.02744 10.6
    endloop
  endfacet
  facet normal 0.743144 -0.669132 0
    outer loop
      vertex 4.32349 -4.02744 2
      vertex 3.76395 -4.64886 10.6
      vertex 3.76395 -4.64886 2
    endloop
  endfacet
  facet normal 0.587789 -0.809015 0
    outer loop
      vertex 4.32349 -4.02744 2
      vertex 5.00002 -3.5359 10.6
      vertex 4.32349 -4.02744 10.6
    endloop
  endfacet
  facet normal 0.587789 -0.809015 0
    outer loop
      vertex 5.00002 -3.5359 10.6
      vertex 4.32349 -4.02744 2
      vertex 5.00002 -3.5359 2
    endloop
  endfacet
  facet normal 0.406731 -0.913548 0
    outer loop
      vertex 5.00002 -3.5359 2
      vertex 5.76395 -3.19579 10.6
      vertex 5.00002 -3.5359 10.6
    endloop
  endfacet
  facet normal 0.406731 -0.913548 0
    outer loop
      vertex 5.76395 -3.19579 10.6
      vertex 5.00002 -3.5359 2
      vertex 5.76395 -3.19579 2
    endloop
  endfacet
  facet normal 0.20791 -0.978148 0
    outer loop
      vertex 5.76395 -3.19579 2
      vertex 6.58189 -3.02193 10.6
      vertex 5.76395 -3.19579 10.6
    endloop
  endfacet
  facet normal 0.20791 -0.978148 0
    outer loop
      vertex 6.58189 -3.02193 10.6
      vertex 5.76395 -3.19579 2
      vertex 6.58189 -3.02193 2
    endloop
  endfacet
  facet normal 0 -1 0
    outer loop
      vertex 6.58189 -3.02193 2
      vertex 15 -3.02193 10.6
      vertex 6.58189 -3.02193 10.6
    endloop
  endfacet
  facet normal 0 -1 -0
    outer loop
      vertex 15 -3.02193 10.6
      vertex 6.58189 -3.02193 2
      vertex 15 -3.02193 2
    endloop
  endfacet
  facet normal 4.23855e-005 -1 0
    outer loop
      vertex -10.5 -14.9997 3.5
      vertex -1.5 -14.9994 9.5
      vertex -10.5 -14.9997 9.5
    endloop
  endfacet
  facet normal 4.23855e-005 -1 0
    outer loop
      vertex -1.5 -14.9994 9.5
      vertex -10.5 -14.9997 3.5
      vertex -1.5 -14.9994 3.5
    endloop
  endfacet
  facet normal 4.25975e-005 -1 5.1953e-007
    outer loop
      vertex -10.5 -14.9997 9.5
      vertex -14.991 -14.9999 10.6
      vertex -13.5 -14.9999 9.5
    endloop
  endfacet
  facet normal 4.22142e-005 -1 0
    outer loop
      vertex -14.991 -14.9999 2
      vertex -13.5 -14.9999 9.5
      vertex -14.991 -14.9999 10.6
    endloop
  endfacet
  facet normal 4.22142e-005 -1 0
    outer loop
      vertex -13.5 -14.9999 9.5
      vertex -14.991 -14.9999 2
      vertex -13.5 -14.9999 2
    endloop
  endfacet
  facet normal 4.24067e-005 -1 -2.59418e-007
    outer loop
      vertex -14.991 -14.9999 10.6
      vertex -10.5 -14.9997 9.5
      vertex 3 -14.9992 10.6
    endloop
  endfacet
  facet normal 4.23855e-005 -1 0
    outer loop
      vertex -1.5 -14.9994 9.5
      vertex 3 -14.9992 10.6
      vertex -10.5 -14.9997 9.5
    endloop
  endfacet
  facet normal 4.22796e-005 -1 4.33489e-007
    outer loop
      vertex 1.5 -14.9992 9.5
      vertex 3 -14.9992 10.6
      vertex -1.5 -14.9994 9.5
    endloop
  endfacet
  facet normal 4.25975e-005 -1 0
    outer loop
      vertex 3 -14.9992 2
      vertex 1.5 -14.9992 9.5
      vertex 1.5 -14.9992 2
    endloop
  endfacet
  facet normal 4.25975e-005 -1 0
    outer loop
      vertex 1.5 -14.9992 9.5
      vertex 3 -14.9992 2
      vertex 3 -14.9992 10.6
    endloop
  endfacet
  facet normal 0.2079 0.97815 -0
    outer loop
      vertex -9.31183 -11.9671 2
      vertex -9.92198 -11.8374 10.6
      vertex -9.31183 -11.9671 10.6
    endloop
  endfacet
  facet normal 0.2079 0.97815 0
    outer loop
      vertex -9.92198 -11.8374 10.6
      vertex -9.31183 -11.9671 2
      vertex -9.92198 -11.8374 2
    endloop
  endfacet
  facet normal 0.406729 0.913549 -0
    outer loop
      vertex -9.92198 -11.8374 2
      vertex -10.4917 -11.5838 10.6
      vertex -9.92198 -11.8374 10.6
    endloop
  endfacet
  facet normal 0.406729 0.913549 0
    outer loop
      vertex -10.4917 -11.5838 10.6
      vertex -9.92198 -11.8374 2
      vertex -10.4917 -11.5838 2
    endloop
  endfacet
  facet normal 0.587796 0.809009 -0
    outer loop
      vertex -10.4917 -11.5838 2
      vertex -10.9963 -11.2172 10.6
      vertex -10.4917 -11.5838 10.6
    endloop
  endfacet
  facet normal 0.587796 0.809009 0
    outer loop
      vertex -10.9963 -11.2172 10.6
      vertex -10.4917 -11.5838 2
      vertex -10.9963 -11.2172 2
    endloop
  endfacet
  facet normal 0.74314 0.669136 0
    outer loop
      vertex -10.9963 -11.2172 10.6
      vertex -11.4137 -10.7536 2
      vertex -11.4137 -10.7536 10.6
    endloop
  endfacet
  facet normal 0.74314 0.669136 0
    outer loop
      vertex -11.4137 -10.7536 2
      vertex -10.9963 -11.2172 10.6
      vertex -10.9963 -11.2172 2
    endloop
  endfacet
  facet normal 0.866035 0.499983 0
    outer loop
      vertex -11.4137 -10.7536 10.6
      vertex -11.7255 -10.2134 2
      vertex -11.7255 -10.2134 10.6
    endloop
  endfacet
  facet normal 0.866035 0.499983 0
    outer loop
      vertex -11.7255 -10.2134 2
      vertex -11.4137 -10.7536 10.6
      vertex -11.4137 -10.7536 2
    endloop
  endfacet
  facet normal 0.951051 0.309033 0
    outer loop
      vertex -11.7255 -10.2134 10.6
      vertex -11.9183 -9.6203 2
      vertex -11.9183 -9.6203 10.6
    endloop
  endfacet
  facet normal 0.951051 0.309033 0
    outer loop
      vertex -11.9183 -9.6203 2
      vertex -11.7255 -10.2134 10.6
      vertex -11.7255 -10.2134 2
    endloop
  endfacet
  facet normal 0.994521 0.104532 0
    outer loop
      vertex -11.9183 -9.6203 10.6
      vertex -12 -8.84276 2
      vertex -12 -8.84276 10.6
    endloop
  endfacet
  facet normal 0.994521 0.104532 0
    outer loop
      vertex -12 -8.84276 2
      vertex -11.9183 -9.6203 10.6
      vertex -11.9183 -9.6203 2
    endloop
  endfacet
  facet normal 1 -0 0
    outer loop
      vertex -12 -8.84276 10.6
      vertex -12 8.84276 2
      vertex -12 8.84276 10.6
    endloop
  endfacet
  facet normal 1 0 0
    outer loop
      vertex -12 8.84276 2
      vertex -12 -8.84276 10.6
      vertex -12 -8.84276 2
    endloop
  endfacet
  facet normal 0.994521 -0.104532 0
    outer loop
      vertex -12 8.84276 10.6
      vertex -11.9183 9.6203 2
      vertex -11.9183 9.6203 10.6
    endloop
  endfacet
  facet normal 0.994521 -0.104532 0
    outer loop
      vertex -11.9183 9.6203 2
      vertex -12 8.84276 10.6
      vertex -12 8.84276 2
    endloop
  endfacet
  facet normal 0.951051 -0.309033 0
    outer loop
      vertex -11.9183 9.6203 10.6
      vertex -11.7255 10.2134 2
      vertex -11.7255 10.2134 10.6
    endloop
  endfacet
  facet normal 0.951051 -0.309033 0
    outer loop
      vertex -11.7255 10.2134 2
      vertex -11.9183 9.6203 10.6
      vertex -11.9183 9.6203 2
    endloop
  endfacet
  facet normal 0.866035 -0.499983 0
    outer loop
      vertex -11.7255 10.2134 10.6
      vertex -11.4137 10.7536 2
      vertex -11.4137 10.7536 10.6
    endloop
  endfacet
  facet normal 0.866035 -0.499983 0
    outer loop
      vertex -11.4137 10.7536 2
      vertex -11.7255 10.2134 10.6
      vertex -11.7255 10.2134 2
    endloop
  endfacet
  facet normal 0.743141 -0.669135 0
    outer loop
      vertex -11.4137 10.7536 10.6
      vertex -10.9963 11.2171 2
      vertex -10.9963 11.2171 10.6
    endloop
  endfacet
  facet normal 0.743141 -0.669135 0
    outer loop
      vertex -10.9963 11.2171 2
      vertex -11.4137 10.7536 10.6
      vertex -11.4137 10.7536 2
    endloop
  endfacet
  facet normal 0.587785 -0.809017 0
    outer loop
      vertex -10.9963 11.2171 2
      vertex -10.4917 11.5838 10.6
      vertex -10.9963 11.2171 10.6
    endloop
  endfacet
  facet normal 0.587785 -0.809017 0
    outer loop
      vertex -10.4917 11.5838 10.6
      vertex -10.9963 11.2171 2
      vertex -10.4917 11.5838 2
    endloop
  endfacet
  facet normal 0.406731 -0.913548 0
    outer loop
      vertex -10.4917 11.5838 2
      vertex -9.92195 11.8374 10.6
      vertex -10.4917 11.5838 10.6
    endloop
  endfacet
  facet normal 0.406731 -0.913548 0
    outer loop
      vertex -9.92195 11.8374 10.6
      vertex -10.4917 11.5838 2
      vertex -9.92195 11.8374 2
    endloop
  endfacet
  facet normal 0.20791 -0.978148 0
    outer loop
      vertex -9.92195 11.8374 2
      vertex -9.31183 11.9671 10.6
      vertex -9.92195 11.8374 10.6
    endloop
  endfacet
  facet normal 0.20791 -0.978148 0
    outer loop
      vertex -9.31183 11.9671 10.6
      vertex -9.92195 11.8374 2
      vertex -9.31183 11.9671 2
    endloop
  endfacet
  facet normal 0 -1 0
    outer loop
      vertex -9.31183 11.9671 2
      vertex 9.31183 11.9671 10.6
      vertex -9.31183 11.9671 10.6
    endloop
  endfacet
  facet normal 0 -1 -0
    outer loop
      vertex 9.31183 11.9671 10.6
      vertex -9.31183 11.9671 2
      vertex 9.31183 11.9671 2
    endloop
  endfacet
  facet normal -0.2079 -0.97815 0
    outer loop
      vertex 9.31183 11.9671 2
      vertex 9.92198 11.8374 10.6
      vertex 9.31183 11.9671 10.6
    endloop
  endfacet
  facet normal -0.2079 -0.97815 -0
    outer loop
      vertex 9.92198 11.8374 10.6
      vertex 9.31183 11.9671 2
      vertex 9.92198 11.8374 2
    endloop
  endfacet
  facet normal -0.406729 -0.913549 0
    outer loop
      vertex 9.92198 11.8374 2
      vertex 10.4917 11.5838 10.6
      vertex 9.92198 11.8374 10.6
    endloop
  endfacet
  facet normal -0.406729 -0.913549 -0
    outer loop
      vertex 10.4917 11.5838 10.6
      vertex 9.92198 11.8374 2
      vertex 10.4917 11.5838 2
    endloop
  endfacet
  facet normal -0.587796 -0.809009 0
    outer loop
      vertex 10.4917 11.5838 2
      vertex 10.9963 11.2172 10.6
      vertex 10.4917 11.5838 10.6
    endloop
  endfacet
  facet normal -0.587796 -0.809009 -0
    outer loop
      vertex 10.9963 11.2172 10.6
      vertex 10.4917 11.5838 2
      vertex 10.9963 11.2172 2
    endloop
  endfacet
  facet normal -0.74314 -0.669136 0
    outer loop
      vertex 11.4137 10.7536 2
      vertex 10.9963 11.2172 10.6
      vertex 10.9963 11.2172 2
    endloop
  endfacet
  facet normal -0.74314 -0.669136 0
    outer loop
      vertex 10.9963 11.2172 10.6
      vertex 11.4137 10.7536 2
      vertex 11.4137 10.7536 10.6
    endloop
  endfacet
  facet normal -0.866035 -0.499983 0
    outer loop
      vertex 11.7255 10.2134 2
      vertex 11.4137 10.7536 10.6
      vertex 11.4137 10.7536 2
    endloop
  endfacet
  facet normal -0.866035 -0.499983 0
    outer loop
      vertex 11.4137 10.7536 10.6
      vertex 11.7255 10.2134 2
      vertex 11.7255 10.2134 10.6
    endloop
  endfacet
  facet normal -0.951051 -0.309033 0
    outer loop
      vertex 11.9183 9.6203 2
      vertex 11.7255 10.2134 10.6
      vertex 11.7255 10.2134 2
    endloop
  endfacet
  facet normal -0.951051 -0.309033 0
    outer loop
      vertex 11.7255 10.2134 10.6
      vertex 11.9183 9.6203 2
      vertex 11.9183 9.6203 10.6
    endloop
  endfacet
  facet normal -0.994521 -0.104532 0
    outer loop
      vertex 12 8.84276 2
      vertex 11.9183 9.6203 10.6
      vertex 11.9183 9.6203 2
    endloop
  endfacet
  facet normal -0.994521 -0.104532 0
    outer loop
      vertex 11.9183 9.6203 10.6
      vertex 12 8.84276 2
      vertex 12 8.84276 10.6
    endloop
  endfacet
  facet normal -1 0 0
    outer loop
      vertex 12 -0.0219269 2
      vertex 12 8.84276 10.6
      vertex 12 8.84276 2
    endloop
  endfacet
  facet normal -1 -0 0
    outer loop
      vertex 12 8.84276 10.6
      vertex 12 -0.0219269 2
      vertex 12 -0.0219269 10.6
    endloop
  endfacet
  facet normal 0 1 -0
    outer loop
      vertex 12 -0.0219269 2
      vertex 6.58189 -0.0219269 10.6
      vertex 12 -0.0219269 10.6
    endloop
  endfacet
  facet normal 0 1 0
    outer loop
      vertex 6.58189 -0.0219269 10.6
      vertex 12 -0.0219269 2
      vertex 6.58189 -0.0219269 2
    endloop
  endfacet
  facet normal -0.10452 0.994523 0
    outer loop
      vertex 6.58189 -0.0219269 2
      vertex 5.95816 -0.0874786 10.6
      vertex 6.58189 -0.0219269 10.6
    endloop
  endfacet
  facet normal -0.10452 0.994523 0
    outer loop
      vertex 5.95816 -0.0874786 10.6
      vertex 6.58189 -0.0219269 2
      vertex 5.95816 -0.0874786 2
    endloop
  endfacet
  facet normal -0.20791 0.978148 0
    outer loop
      vertex 5.95816 -0.0874786 2
      vertex 5.14021 -0.261337 10.6
      vertex 5.95816 -0.0874786 10.6
    endloop
  endfacet
  facet normal -0.20791 0.978148 0
    outer loop
      vertex 5.14021 -0.261337 10.6
      vertex 5.95816 -0.0874786 2
      vertex 5.14021 -0.261337 2
    endloop
  endfacet
  facet normal -0.309015 0.951057 0
    outer loop
      vertex 5.14021 -0.261337 2
      vertex 4.54375 -0.455139 10.6
      vertex 5.14021 -0.261337 10.6
    endloop
  endfacet
  facet normal -0.309015 0.951057 0
    outer loop
      vertex 4.54375 -0.455139 10.6
      vertex 5.14021 -0.261337 2
      vertex 4.54375 -0.455139 2
    endloop
  endfacet
  facet normal -0.406731 0.913548 0
    outer loop
      vertex 4.54375 -0.455139 2
      vertex 3.77982 -0.795258 10.6
      vertex 4.54375 -0.455139 10.6
    endloop
  endfacet
  facet normal -0.406731 0.913548 0
    outer loop
      vertex 3.77982 -0.795258 10.6
      vertex 4.54375 -0.455139 2
      vertex 3.77982 -0.795258 2
    endloop
  endfacet
  facet normal -0.500001 0.866025 0
    outer loop
      vertex 3.77982 -0.795258 2
      vertex 3.23665 -1.10886 10.6
      vertex 3.77982 -0.795258 10.6
    endloop
  endfacet
  facet normal -0.500001 0.866025 0
    outer loop
      vertex 3.23665 -1.10886 10.6
      vertex 3.77982 -0.795258 2
      vertex 3.23665 -1.10886 2
    endloop
  endfacet
  facet normal -0.587789 0.809015 0
    outer loop
      vertex 3.23665 -1.10886 2
      vertex 2.56012 -1.60039 10.6
      vertex 3.23665 -1.10886 10.6
    endloop
  endfacet
  facet normal -0.587789 0.809015 0
    outer loop
      vertex 2.56012 -1.60039 10.6
      vertex 3.23665 -1.10886 2
      vertex 2.56012 -1.60039 2
    endloop
  endfacet
  facet normal -0.669131 0.743144 0
    outer loop
      vertex 2.56012 -1.60039 2
      vertex 2.09406 -2.02003 10.6
      vertex 2.56012 -1.60039 10.6
    endloop
  endfacet
  facet normal -0.669131 0.743144 0
    outer loop
      vertex 2.09406 -2.02003 10.6
      vertex 2.56012 -1.60039 2
      vertex 2.09406 -2.02003 2
    endloop
  endfacet
  facet normal -0.743144 0.669132 0
    outer loop
      vertex 1.53452 -2.64146 2
      vertex 2.09406 -2.02003 10.6
      vertex 2.09406 -2.02003 2
    endloop
  endfacet
  facet normal -0.743144 0.669132 0
    outer loop
      vertex 2.09406 -2.02003 10.6
      vertex 1.53452 -2.64146 2
      vertex 1.53452 -2.64146 10.6
    endloop
  endfacet
  facet normal -0.809017 0.587785 0
    outer loop
      vertex 1.16588 -3.14885 2
      vertex 1.53452 -2.64146 10.6
      vertex 1.53452 -2.64146 2
    endloop
  endfacet
  facet normal -0.809017 0.587785 0
    outer loop
      vertex 1.53452 -2.64146 10.6
      vertex 1.16588 -3.14885 2
      vertex 1.16588 -3.14885 10.6
    endloop
  endfacet
  facet normal -0.866022 0.500005 0
    outer loop
      vertex 0.747757 -3.87305 2
      vertex 1.16588 -3.14885 10.6
      vertex 1.16588 -3.14885 2
    endloop
  endfacet
  facet normal -0.866022 0.500005 0
    outer loop
      vertex 1.16588 -3.14885 10.6
      vertex 0.747757 -3.87305 2
      vertex 0.747757 -3.87305 10.6
    endloop
  endfacet
  facet normal -0.913549 0.40673 0
    outer loop
      vertex 0.492661 -4.44601 2
      vertex 0.747757 -3.87305 10.6
      vertex 0.747757 -3.87305 2
    endloop
  endfacet
  facet normal -0.913549 0.40673 0
    outer loop
      vertex 0.747757 -3.87305 10.6
      vertex 0.492661 -4.44601 2
      vertex 0.492661 -4.44601 10.6
    endloop
  endfacet
  facet normal -0.951057 0.309015 0
    outer loop
      vertex 0.234253 -5.24132 2
      vertex 0.492661 -4.44601 10.6
      vertex 0.492661 -4.44601 2
    endloop
  endfacet
  facet normal -0.951057 0.309015 0
    outer loop
      vertex 0.492661 -4.44601 10.6
      vertex 0.234253 -5.24132 2
      vertex 0.234253 -5.24132 10.6
    endloop
  endfacet
  facet normal -0.978144 0.20793 0
    outer loop
      vertex 0.103851 -5.85475 2
      vertex 0.234253 -5.24132 10.6
      vertex 0.234253 -5.24132 2
    endloop
  endfacet
  facet normal -0.978144 0.20793 0
    outer loop
      vertex 0.234253 -5.24132 10.6
      vertex 0.103851 -5.85475 2
      vertex 0.103851 -5.85475 10.6
    endloop
  endfacet
  facet normal -0.994521 0.104539 0
    outer loop
      vertex 0.0164337 -6.68639 2
      vertex 0.103851 -5.85475 10.6
      vertex 0.103851 -5.85475 2
    endloop
  endfacet
  facet normal -0.994521 0.104539 0
    outer loop
      vertex 0.103851 -5.85475 10.6
      vertex 0.0164337 -6.68639 2
      vertex 0.0164337 -6.68639 10.6
    endloop
  endfacet
  facet normal -0.99863 0.0523293 0
    outer loop
      vertex 0 -7 2
      vertex 0.0164337 -6.68639 10.6
      vertex 0.0164337 -6.68639 2
    endloop
  endfacet
  facet normal -0.99863 0.0523293 0
    outer loop
      vertex 0.0164337 -6.68639 10.6
      vertex 0 -7 2
      vertex 0 -7 10.6
    endloop
  endfacet
  facet normal -1 0 0
    outer loop
      vertex 0 -11.9671 2
      vertex 0 -7 10.6
      vertex 0 -7 2
    endloop
  endfacet
  facet normal -1 -0 0
    outer loop
      vertex 0 -7 10.6
      vertex 0 -11.9671 2
      vertex 0 -11.9671 10.6
    endloop
  endfacet
  facet normal 0 1 -0
    outer loop
      vertex 0 -11.9671 2
      vertex -9.31183 -11.9671 10.6
      vertex 0 -11.9671 10.6
    endloop
  endfacet
  facet normal 0 1 0
    outer loop
      vertex -9.31183 -11.9671 10.6
      vertex 0 -11.9671 2
      vertex -9.31183 -11.9671 2
    endloop
  endfacet
  facet normal -1 0 0
    outer loop
      vertex 9 -14.9989 0
      vertex 9 -15 0
      vertex 9 -14.9989 2
    endloop
  endfacet
  facet normal -1 0 0
    outer loop
      vertex 9 -14.9989 2
      vertex 9 -12 10.6
      vertex 9 -12 2
    endloop
  endfacet
  facet normal -1 0 0
    outer loop
      vertex 9 -14.9989 2
      vertex 9 -15 10.6
      vertex 9 -12 10.6
    endloop
  endfacet
  facet normal -1 0 0
    outer loop
      vertex 9 -15 10.6
      vertex 9 -14.9989 2
      vertex 9 -15 0
    endloop
  endfacet
  facet normal -0 0 1
    outer loop
      vertex 12 -9 10.6
      vertex 15 -12.002 10.6
      vertex 15 -9 10.6
    endloop
  endfacet
  facet normal 0 0 1
    outer loop
      vertex 15 -12.002 10.6
      vertex 12 -9 10.6
      vertex 12.002 -15 10.6
    endloop
  endfacet
  facet normal -0 0 1
    outer loop
      vertex 11.4791 -9.04558 10.6
      vertex 12.002 -15 10.6
      vertex 12 -9 10.6
    endloop
  endfacet
  facet normal -0 0 1
    outer loop
      vertex 10.974 -9.18092 10.6
      vertex 12.002 -15 10.6
      vertex 11.4791 -9.04558 10.6
    endloop
  endfacet
  facet normal -0 0 1
    outer loop
      vertex 10.5 -9.40193 10.6
      vertex 12.002 -15 10.6
      vertex 10.974 -9.18092 10.6
    endloop
  endfacet
  facet normal -0 0 1
    outer loop
      vertex 10.0716 -9.70187 10.6
      vertex 12.002 -15 10.6
      vertex 10.5 -9.40193 10.6
    endloop
  endfacet
  facet normal -0 0 1
    outer loop
      vertex 9.70187 -10.0716 10.6
      vertex 12.002 -15 10.6
      vertex 10.0716 -9.70187 10.6
    endloop
  endfacet
  facet normal -0 0 1
    outer loop
      vertex 9.40193 -10.5 10.6
      vertex 12.002 -15 10.6
      vertex 9.70187 -10.0716 10.6
    endloop
  endfacet
  facet normal -0 0 1
    outer loop
      vertex 9.18092 -10.974 10.6
      vertex 12.002 -15 10.6
      vertex 9.40193 -10.5 10.6
    endloop
  endfacet
  facet normal -0 0 1
    outer loop
      vertex 9.04558 -11.4791 10.6
      vertex 12.002 -15 10.6
      vertex 9.18092 -10.974 10.6
    endloop
  endfacet
  facet normal -0 0 1
    outer loop
      vertex 9 -12 10.6
      vertex 12.002 -15 10.6
      vertex 9.04558 -11.4791 10.6
    endloop
  endfacet
  facet normal 0 0 1
    outer loop
      vertex 12.002 -15 10.6
      vertex 9 -12 10.6
      vertex 9 -15 10.6
    endloop
  endfacet
  facet normal 1 -0 0
    outer loop
      vertex 15 -12.002 10.6
      vertex 15 -9 0
      vertex 15 -9 10.6
    endloop
  endfacet
  facet normal 1 0 0
    outer loop
      vertex 15 -9 0
      vertex 15 -12.002 10.6
      vertex 15 -12.002 0
    endloop
  endfacet
  facet normal 0 -1 0
    outer loop
      vertex 9 -15 0
      vertex 12.002 -15 10.6
      vertex 9 -15 10.6
    endloop
  endfacet
  facet normal 0 -1 -0
    outer loop
      vertex 12.002 -15 10.6
      vertex 9 -15 0
      vertex 12.002 -15 0
    endloop
  endfacet
  facet normal 0 1 0
    outer loop
      vertex 15 -9 10.6
      vertex 15 -9 2
      vertex 12 -9 10.6
    endloop
  endfacet
  facet normal 0 1 -0
    outer loop
      vertex 15 -9 0
      vertex 15 -9 2
      vertex 15 -9 10.6
    endloop
  endfacet
  facet normal 0 1 0
    outer loop
      vertex 12 -9 10.6
      vertex 15 -9 2
      vertex 12 -9 2
    endloop
  endfacet
  facet normal -0.996194 0.0871596 0
    outer loop
      vertex -14.9999 12.0012 0
      vertex -14.9544 12.5209 10.6
      vertex -14.9544 12.5209 0
    endloop
  endfacet
  facet normal -0.996194 0.0871596 0
    outer loop
      vertex -14.9544 12.5209 10.6
      vertex -14.9999 12.0012 0
      vertex -14.9999 12.0012 10.6
    endloop
  endfacet
  facet normal -0.965925 0.258821 0
    outer loop
      vertex -14.9544 12.5209 0
      vertex -14.8191 13.026 10.6
      vertex -14.8191 13.026 0
    endloop
  endfacet
  facet normal -0.965925 0.258821 0
    outer loop
      vertex -14.8191 13.026 10.6
      vertex -14.9544 12.5209 0
      vertex -14.9544 12.5209 10.6
    endloop
  endfacet
  facet normal -0.906308 0.422619 0
    outer loop
      vertex -14.8191 13.026 0
      vertex -14.5981 13.5 10.6
      vertex -14.5981 13.5 0
    endloop
  endfacet
  facet normal -0.906308 0.422619 0
    outer loop
      vertex -14.5981 13.5 10.6
      vertex -14.8191 13.026 0
      vertex -14.8191 13.026 10.6
    endloop
  endfacet
  facet normal -0.819151 0.573578 0
    outer loop
      vertex -14.5981 13.5 0
      vertex -14.2981 13.9284 10.6
      vertex -14.2981 13.9284 0
    endloop
  endfacet
  facet normal -0.819151 0.573578 0
    outer loop
      vertex -14.2981 13.9284 10.6
      vertex -14.5981 13.5 0
      vertex -14.5981 13.5 10.6
    endloop
  endfacet
  facet normal -0.707107 0.707107 0
    outer loop
      vertex -14.2981 13.9284 0
      vertex -13.9284 14.2981 10.6
      vertex -13.9284 14.2981 0
    endloop
  endfacet
  facet normal -0.707107 0.707107 0
    outer loop
      vertex -13.9284 14.2981 10.6
      vertex -14.2981 13.9284 0
      vertex -14.2981 13.9284 10.6
    endloop
  endfacet
  facet normal -0.573564 0.819161 0
    outer loop
      vertex -13.5 14.5981 0
      vertex -13.9284 14.2981 10.6
      vertex -13.5 14.5981 10.6
    endloop
  endfacet
  facet normal -0.573564 0.819161 0
    outer loop
      vertex -13.9284 14.2981 10.6
      vertex -13.5 14.5981 0
      vertex -13.9284 14.2981 0
    endloop
  endfacet
  facet normal -0.42263 0.906302 0
    outer loop
      vertex -13.026 14.8191 0
      vertex -13.5 14.5981 10.6
      vertex -13.026 14.8191 10.6
    endloop
  endfacet
  facet normal -0.42263 0.906302 0
    outer loop
      vertex -13.5 14.5981 10.6
      vertex -13.026 14.8191 0
      vertex -13.5 14.5981 0
    endloop
  endfacet
  facet normal -0.258821 0.965925 0
    outer loop
      vertex -12.5209 14.9544 0
      vertex -13.026 14.8191 10.6
      vertex -12.5209 14.9544 10.6
    endloop
  endfacet
  facet normal -0.258821 0.965925 0
    outer loop
      vertex -13.026 14.8191 10.6
      vertex -12.5209 14.9544 0
      vertex -13.026 14.8191 0
    endloop
  endfacet
  facet normal -0.0871605 0.996194 0
    outer loop
      vertex -12.0141 14.9988 0
      vertex -12.5209 14.9544 10.6
      vertex -12.0141 14.9988 10.6
    endloop
  endfacet
  facet normal -0.0871605 0.996194 0
    outer loop
      vertex -12.5209 14.9544 10.6
      vertex -12.0141 14.9988 0
      vertex -12.5209 14.9544 0
    endloop
  endfacet
  facet normal -0.996194 0.0871597 0
    outer loop
      vertex 9 -12 2
      vertex 9.04558 -11.4791 10.6
      vertex 9.04558 -11.4791 2
    endloop
  endfacet
  facet normal -0.996194 0.0871597 0
    outer loop
      vertex 9.04558 -11.4791 10.6
      vertex 9 -12 2
      vertex 9 -12 10.6
    endloop
  endfacet
  facet normal -0.965925 0.258821 0
    outer loop
      vertex 9.04558 -11.4791 2
      vertex 9.18092 -10.974 10.6
      vertex 9.18092 -10.974 2
    endloop
  endfacet
  facet normal -0.965925 0.258821 0
    outer loop
      vertex 9.18092 -10.974 10.6
      vertex 9.04558 -11.4791 2
      vertex 9.04558 -11.4791 10.6
    endloop
  endfacet
  facet normal -0.906308 0.422619 0
    outer loop
      vertex 9.18092 -10.974 2
      vertex 9.40193 -10.5 10.6
      vertex 9.40193 -10.5 2
    endloop
  endfacet
  facet normal -0.906308 0.422619 0
    outer loop
      vertex 9.40193 -10.5 10.6
      vertex 9.18092 -10.974 2
      vertex 9.18092 -10.974 10.6
    endloop
  endfacet
  facet normal -0.819151 0.573578 0
    outer loop
      vertex 9.40193 -10.5 2
      vertex 9.70187 -10.0716 10.6
      vertex 9.70187 -10.0716 2
    endloop
  endfacet
  facet normal -0.819151 0.573578 0
    outer loop
      vertex 9.70187 -10.0716 10.6
      vertex 9.40193 -10.5 2
      vertex 9.40193 -10.5 10.6
    endloop
  endfacet
  facet normal -0.707107 0.707107 0
    outer loop
      vertex 9.70187 -10.0716 2
      vertex 10.0716 -9.70187 10.6
      vertex 10.0716 -9.70187 2
    endloop
  endfacet
  facet normal -0.707107 0.707107 0
    outer loop
      vertex 10.0716 -9.70187 10.6
      vertex 9.70187 -10.0716 2
      vertex 9.70187 -10.0716 10.6
    endloop
  endfacet
  facet normal -0.573564 0.819161 0
    outer loop
      vertex 10.5 -9.40193 2
      vertex 10.0716 -9.70187 10.6
      vertex 10.5 -9.40193 10.6
    endloop
  endfacet
  facet normal -0.573564 0.819161 0
    outer loop
      vertex 10.0716 -9.70187 10.6
      vertex 10.5 -9.40193 2
      vertex 10.0716 -9.70187 2
    endloop
  endfacet
  facet normal -0.42263 0.906302 0
    outer loop
      vertex 10.974 -9.18092 2
      vertex 10.5 -9.40193 10.6
      vertex 10.974 -9.18092 10.6
    endloop
  endfacet
  facet normal -0.42263 0.906302 0
    outer loop
      vertex 10.5 -9.40193 10.6
      vertex 10.974 -9.18092 2
      vertex 10.5 -9.40193 2
    endloop
  endfacet
  facet normal -0.258821 0.965925 0
    outer loop
      vertex 11.4791 -9.04558 2
      vertex 10.974 -9.18092 10.6
      vertex 11.4791 -9.04558 10.6
    endloop
  endfacet
  facet normal -0.258821 0.965925 0
    outer loop
      vertex 10.974 -9.18092 10.6
      vertex 11.4791 -9.04558 2
      vertex 10.974 -9.18092 2
    endloop
  endfacet
  facet normal -0.0871597 0.996194 0
    outer loop
      vertex 12 -9 2
      vertex 11.4791 -9.04558 10.6
      vertex 12 -9 10.6
    endloop
  endfacet
  facet normal -0.0871597 0.996194 0
    outer loop
      vertex 11.4791 -9.04558 10.6
      vertex 12 -9 2
      vertex 11.4791 -9.04558 2
    endloop
  endfacet
  facet normal 0.707109 -0.707105 0
    outer loop
      vertex 12.002 -15 10.6
      vertex 15 -12.002 0
      vertex 15 -12.002 10.6
    endloop
  endfacet
  facet normal 0.707109 -0.707105 0
    outer loop
      vertex 15 -12.002 0
      vertex 12.002 -15 10.6
      vertex 12.002 -15 0
    endloop
  endfacet
endsolid OpenSCAD_Model
